<svg width="24" height="24" viewBox="0 0 24 24" fill="none" xmlns="http://www.w3.org/2000/svg">
<path d="M12.92 2.26003L19.43 5.77003C20.19 6.18003 20.19 7.35003 19.43 7.76003L12.92 11.27C12.34 11.58 11.66 11.58 11.08 11.27L4.57 7.76003C3.81 7.35003 3.81 6.18003 4.57 5.77003L11.08 2.26003C11.66 1.95003 12.34 1.95003 12.92 2.26003Z" stroke="white" stroke-width="2" stroke-linecap="round" stroke-linejoin="round"/>
<path d="M3.61 10.13L9.66 13.16C10.41 13.54 10.89 14.31 10.89 15.15V20.87C10.89 21.7 10.02 22.23 9.28 21.86L3.23 18.83C2.48 18.45 2 17.68 2 16.84V11.12C2 10.29 2.87 9.75999 3.61 10.13Z" stroke="white" stroke-width="2" stroke-linecap="round" stroke-linejoin="round"/>
<path d="M20.39 10.13L14.34 13.16C13.59 13.54 13.11 14.31 13.11 15.15V20.87C13.11 21.7 13.98 22.23 14.72 21.86L20.77 18.83C21.52 18.45 22 17.68 22 16.84V11.12C22 10.29 21.13 9.75999 20.39 10.13Z" stroke="white" stroke-width="2" stroke-linecap="round" stroke-linejoin="round"/>
</svg>
