<svg width="41" height="40" viewBox="0 0 41 40" fill="none" xmlns="http://www.w3.org/2000/svg">
<path d="M20.5 0C31.5667 0 40.5 8.93333 40.5 20C40.5 31.0667 31.5667 40 20.5 40C9.43333 40 0.5 31.0667 0.5 20C0.5 8.93333 9.43333 0 20.5 0Z" fill="#FFDD67"/>
<path d="M23.0334 12.3333C21.5667 13.0667 19.3667 13.0667 17.9 12.3333C16.3667 11.5333 14.4334 11 12.1 10.8C9.83337 10.6 5.10004 10.6 2.7667 11.4667C2.50004 11.5333 2.23337 11.6667 1.9667 11.8C1.90004 11.8667 1.83337 11.9333 1.83337 12.2V12.5333C1.83337 13.2 1.7667 12.9333 2.23337 13.2C3.1667 13.7333 3.70004 15.1333 3.9667 17.0667C4.3667 19.8667 5.7667 21.6667 7.9667 22.4667C10.0334 23.2667 12.3667 23.2 14.4334 22.4C15.5667 21.9333 16.5667 21.2667 17.3667 20.0667C18.7667 18.0667 18.3 16.8 19.0334 15.0667C19.6334 13.5333 21.3667 13.5333 22.0334 15.0667C22.7667 16.8 22.3 18.0667 23.7 20.0667C24.5 21.2 25.5 21.9333 26.6334 22.4C28.7 23.2 31.0334 23.2667 33.1 22.4667C35.3667 21.6 36.7 19.8667 37.1 17.0667C37.3667 15.1333 37.9 13.7333 38.8334 13.2C39.3 12.9333 39.2334 13.2 39.2334 12.5333V12.2C39.2334 11.9333 39.2334 11.8667 39.0334 11.8C38.7667 11.6667 38.5 11.5333 38.2334 11.4667C35.8334 10.6 31.1 10.6 28.9 10.8C26.5667 11 24.6334 11.5333 23.0334 12.3333Z" fill="#494949"/>
<path d="M28.9001 26.8667C23.5001 30.6667 17.5001 30.6 12.1001 26.8667C11.4335 26.4 10.9001 27.2 11.3001 27.9333C12.9668 30.6 16.2335 33.0667 20.5001 33.0667C24.7668 33.0667 28.0335 30.6667 29.7001 27.9333C30.1001 27.2 29.5668 26.4 28.9001 26.8667Z" fill="#664E27"/>
</svg>
