<svg width="30" height="30" viewBox="0 0 30 30" fill="none" xmlns="http://www.w3.org/2000/svg">
<path opacity="0.4" d="M24.825 10.1125C24.825 10.3 24.825 10.4875 24.8125 10.6625C22.9 9.94999 20.65 10.3875 19.15 11.7375C18.1375 10.825 16.825 10.3125 15.425 10.3125C12.35 10.3125 9.85001 12.825 9.85001 15.925C9.85001 19.4625 11.625 22.05 13.325 23.725C13.1875 23.7125 13.075 23.6875 12.975 23.65C9.73751 22.5375 2.5 17.9375 2.5 10.1125C2.5 6.66249 5.27499 3.875 8.69999 3.875C10.7375 3.875 12.5375 4.84999 13.6625 6.36249C14.8 4.84999 16.6 3.875 18.625 3.875C22.05 3.875 24.825 6.66249 24.825 10.1125Z" fill="white"/>
<path d="M22.4999 11.9875C21.1624 11.9875 19.9499 12.6375 19.1999 13.6375C18.4499 12.6375 17.2499 11.9875 15.8999 11.9875C13.6249 11.9875 11.7749 13.8375 11.7749 16.1375C11.7749 17.025 11.9124 17.8375 12.1624 18.5875C13.3374 22.3 16.9499 24.5125 18.7374 25.125C18.9874 25.2125 19.3999 25.2125 19.6624 25.125C21.4499 24.5125 25.0624 22.3 26.2374 18.5875C26.4874 17.825 26.6249 17.0125 26.6249 16.1375C26.6249 13.8375 24.7749 11.9875 22.4999 11.9875Z" fill="white"/>
</svg>
