<svg width="41" height="40" viewBox="0 0 41 40" fill="none" xmlns="http://www.w3.org/2000/svg">
<path d="M40.5 20.0123C40.5 31.0722 31.5761 40 20.521 40C9.46595 40 0.541992 31.0722 0.541992 20.0123C0.541992 8.95243 9.46595 0.0245819 20.521 0.0245819C31.5761 0.0245819 40.5 8.95243 40.5 20.0123Z" fill="#FFDD67"/>
<path d="M40.3668 7.48666C40.0338 5.68776 39.0349 4.222 37.37 3.75562C35.5718 3.28924 33.9735 3.9555 32.4418 5.55451C31.576 3.15599 30.2441 1.35709 28.113 0.424334C25.9819 -0.508426 23.8508 0.157831 22.5189 1.82347C21.1204 3.55574 20.5876 6.2874 22.0527 9.81856C23.4512 13.1498 29.6447 19.8124 29.8445 20.0123C30.1109 19.879 37.037 15.5484 38.7019 13.4163C40.3668 11.3509 40.6998 9.28555 40.3668 7.48666ZM18.5231 1.82347C17.1911 0.157831 15.0601 -0.508426 12.929 0.424334C10.7979 1.35709 9.46593 3.15599 8.60017 5.55451C7.00185 4.02212 5.40353 3.28924 3.60542 3.82224C2.0071 4.28862 0.941548 5.75439 0.608565 7.55328C0.275581 9.28555 0.675161 11.4176 2.27348 13.483C4.005 15.5484 10.9311 19.879 11.1974 20.0123C11.3972 19.8124 17.5907 13.1498 18.9893 9.81856C20.4544 6.2874 19.9216 3.62237 18.5231 1.82347Z" fill="#F46767"/>
<path d="M31.8423 24.0764C31.8423 23.5434 31.5094 22.8772 30.6436 22.6773C28.3127 22.2109 24.9163 21.8112 20.5209 21.8112C16.1255 21.8112 12.7291 22.2776 10.3982 22.6773C9.46585 22.8772 9.19946 23.5434 9.19946 24.0764C9.19946 28.9401 12.9289 33.8038 20.5209 33.8038C28.1129 33.7372 31.8423 28.8735 31.8423 24.0764Z" fill="#664E27"/>
<path d="M28.9787 24.2097C27.5136 23.9432 24.4501 23.5434 20.5209 23.5434C16.5917 23.5434 13.5283 23.9432 12.0631 24.2097C11.1974 24.343 11.1308 24.6761 11.1974 25.2091C11.264 25.4756 11.264 25.8753 11.3972 26.2751C11.4638 26.6749 11.597 26.8747 12.2629 26.8081C13.5283 26.6749 27.5802 26.6749 28.8455 26.8081C29.5115 26.8747 29.5781 26.6749 29.7113 26.2751C29.7779 25.8753 29.8445 25.5422 29.9111 25.2091C29.9111 24.6761 29.8445 24.343 28.9787 24.2097Z" fill="white"/>
</svg>
