<svg width="40" height="40" viewBox="0 0 40 40" fill="none" xmlns="http://www.w3.org/2000/svg">
<rect width="40" height="40" rx="20" fill="white"/>
<path d="M21.6666 14.1667C21.6666 13.25 20.9166 12.5 20 12.5C19.0833 12.5 18.3333 13.25 18.3333 14.1667C18.3333 15.0833 19.0833 15.8333 20 15.8333C20.9166 15.8333 21.6666 15.0833 21.6666 14.1667Z" stroke="#76AE43" stroke-width="2"/>
<path d="M21.6666 25.8334C21.6666 24.9167 20.9166 24.1667 20 24.1667C19.0833 24.1667 18.3333 24.9167 18.3333 25.8334C18.3333 26.75 19.0833 27.5 20 27.5C20.9166 27.5 21.6666 26.75 21.6666 25.8334Z" stroke="#76AE43" stroke-width="2"/>
<path d="M21.6666 20C21.6666 19.0833 20.9166 18.3333 20 18.3333C19.0833 18.3333 18.3333 19.0833 18.3333 20C18.3333 20.9166 19.0833 21.6666 20 21.6666C20.9166 21.6666 21.6666 20.9166 21.6666 20Z" stroke="#76AE43" stroke-width="2"/>
</svg>
