<svg width="40" height="40" viewBox="0 0 40 40" fill="none" xmlns="http://www.w3.org/2000/svg">
<rect width="40" height="40" rx="20" fill="white"/>
<path d="M25.8334 16.6667C27.2141 16.6667 28.3334 15.5474 28.3334 14.1667C28.3334 12.786 27.2141 11.6667 25.8334 11.6667C24.4527 11.6667 23.3334 12.786 23.3334 14.1667C23.3334 15.5474 24.4527 16.6667 25.8334 16.6667Z" stroke="#76AE43" stroke-width="2" stroke-linecap="round" stroke-linejoin="round"/>
<path d="M15.8334 20.8333H20" stroke="#76AE43" stroke-width="2" stroke-linecap="round" stroke-linejoin="round"/>
<path d="M15.8334 24.1667H23.3334" stroke="#76AE43" stroke-width="2" stroke-linecap="round" stroke-linejoin="round"/>
<path d="M21.6666 11.6667H17.5C13.3333 11.6667 11.6666 13.3334 11.6666 17.5V22.5C11.6666 26.6667 13.3333 28.3334 17.5 28.3334H22.5C26.6666 28.3334 28.3333 26.6667 28.3333 22.5V18.3334" stroke="#76AE43" stroke-width="2" stroke-linecap="round" stroke-linejoin="round"/>
</svg>
