<svg width="41" height="40" viewBox="0 0 41 40" fill="none" xmlns="http://www.w3.org/2000/svg">
<path d="M20.5 40C31.5457 40 40.5 31.0457 40.5 20C40.5 8.95431 31.5457 0 20.5 0C9.45431 0 0.5 8.95431 0.5 20C0.5 31.0457 9.45431 40 20.5 40Z" fill="#FFDD67"/>
<path d="M12.8333 19.7333C14.6743 19.7333 16.1667 18.241 16.1667 16.4C16.1667 14.5591 14.6743 13.0667 12.8333 13.0667C10.9924 13.0667 9.5 14.5591 9.5 16.4C9.5 18.241 10.9924 19.7333 12.8333 19.7333Z" fill="#664E27"/>
<path d="M28.1666 19.7333C30.0075 19.7333 31.4999 18.241 31.4999 16.4C31.4999 14.5591 30.0075 13.0667 28.1666 13.0667C26.3256 13.0667 24.8333 14.5591 24.8333 16.4C24.8333 18.241 26.3256 19.7333 28.1666 19.7333Z" fill="#664E27"/>
<path d="M28.9001 25.5333C23.5001 29.3333 17.5001 29.2667 12.1001 25.5333C11.4335 25.0667 10.9001 25.8667 11.3001 26.6C12.9668 29.2667 16.2335 31.7333 20.5001 31.7333C24.7668 31.7333 28.0335 29.3333 29.7001 26.6C30.1001 25.8667 29.5668 25.0667 28.9001 25.5333Z" fill="#664E27"/>
</svg>
