<svg width="16" height="16" viewBox="0 0 16 16" fill="none" xmlns="http://www.w3.org/2000/svg">
<path d="M8.00004 14.6667C11.6819 14.6667 14.6667 11.6819 14.6667 8.00001C14.6667 4.31811 11.6819 1.33334 8.00004 1.33334C4.31814 1.33334 1.33337 4.31811 1.33337 8.00001C1.33337 11.6819 4.31814 14.6667 8.00004 14.6667Z" fill="#4541FF"/>
<path d="M7.05334 10.3867C6.92 10.3867 6.79334 10.3333 6.7 10.24L4.81333 8.35334C4.62 8.16 4.62 7.84 4.81333 7.64667C5.00667 7.45334 5.32667 7.45334 5.52 7.64667L7.05334 9.18L10.48 5.75334C10.6733 5.56 10.9933 5.56 11.1867 5.75334C11.38 5.94667 11.38 6.26667 11.1867 6.46L7.40667 10.24C7.31334 10.3333 7.18667 10.3867 7.05334 10.3867Z" fill="white"/>
</svg>
